<?xml version="1.0" encoding="UTF-8"?>
<svg version="1.1" xmlns="http://www.w3.org/2000/svg" width="128" height="128">
<path d="M0 0 C1.216875 -0.02900391 2.43375 -0.05800781 3.6875 -0.08789062 C20.71443305 -0.20613322 34.70918847 6.67257872 46.76953125 18.44921875 C58.93245815 31.20376155 65.11623379 46.56511444 64.9375 64.125 C64.92614014 65.69930786 64.92614014 65.69930786 64.91455078 67.30541992 C64.54164129 84.9396835 57.75521895 99.60616869 45.5 112.3125 C38.52572071 118.44834134 31.18457449 123.02608807 22.5 126.3125 C21.604021 126.65490723 20.70804199 126.99731445 19.78491211 127.35009766 C14.31451895 128.95279478 8.74570202 128.72321538 3.08959961 128.73803711 C0.96672734 128.74983753 -1.15313871 128.79899138 -3.27539062 128.84960938 C-17.26003773 129.01625738 -28.21742136 124.46004502 -39.5 116.3125 C-40.56154297 115.54679687 -40.56154297 115.54679687 -41.64453125 114.765625 C-53.17719051 105.57589257 -60.9730786 90.68981139 -63.5 76.3125 C-65.37207084 55.58503935 -62.17757819 38.93883206 -49.5 22.3125 C-36.57924458 6.8627711 -19.63290409 0.15211444 0 0 Z " fill="#E4F8FD" transform="translate(63.5,-0.3125)"/>
<path d="M0 0 C8.95368346 4.67941376 8.95368346 4.67941376 10.39501953 8.52636719 C11.20948511 12.92044616 11.05553985 17.24272674 10.703125 21.6796875 C11.198125 21.1846875 11.198125 21.1846875 11.703125 20.6796875 C11.59871094 19.27203125 11.59871094 19.27203125 11.4921875 17.8359375 C11.07198458 8.47141524 11.07198458 8.47141524 14.12158203 5.12158203 C18.90317446 1.32764984 24.54823246 -2.44395557 30.79296875 -2.19921875 C36.5597621 -0.45756975 41.51928543 1.17043819 45.703125 5.6796875 C47.20458652 11.20804175 46.38426526 17.07289408 45.703125 22.6796875 C43.50582116 24.05525991 41.29822562 25.40432002 39.078125 26.7421875 C38.46066406 27.13212891 37.84320313 27.52207031 37.20703125 27.92382812 C34.06820608 29.79060309 32.28972979 30.69210628 28.56640625 30.61328125 C25.54386678 29.62776019 23.18446974 28.40098891 20.515625 26.6796875 C17.84620831 24.97388513 15.71976919 23.68523556 12.703125 22.6796875 C12.72762001 24.57432414 12.72762001 24.57432414 13.703125 26.6796875 C16.51306286 28.67861837 16.51306286 28.67861837 19.953125 30.3671875 C21.09265625 30.96917969 22.2321875 31.57117187 23.40625 32.19140625 C27.41683755 34.11403185 27.41683755 34.11403185 31.703125 34.6796875 C35.06381384 33.08159432 38.04866615 30.88276346 41.08789062 28.75195312 C45.96788887 25.54651265 45.96788887 25.54651265 49.80859375 26.2421875 C50.76378906 26.7165625 51.71898438 27.1909375 52.703125 27.6796875 C53.69054687 28.05222656 54.67796875 28.42476562 55.6953125 28.80859375 C59.05954653 30.4815936 61.24626283 31.80691672 63.703125 34.6796875 C65.08119847 40.22735149 64.32826211 46.06608258 63.703125 51.6796875 C61.95360932 52.63890472 60.20349256 53.59702567 58.453125 54.5546875 C57.47859375 55.08835938 56.5040625 55.62203125 55.5 56.171875 C54.11554688 56.91824219 54.11554688 56.91824219 52.703125 57.6796875 C52.02765625 58.09476563 51.3521875 58.50984375 50.65625 58.9375 C47.91012927 59.98102588 46.49278411 59.57386184 43.703125 58.6796875 C41.56231728 57.55959111 39.45841679 56.36695177 37.390625 55.1171875 C35.78767578 54.15619141 35.78767578 54.15619141 34.15234375 53.17578125 C33.34410156 52.68207031 32.53585938 52.18835938 31.703125 51.6796875 C31.373125 52.9996875 31.043125 54.3196875 30.703125 55.6796875 C33.24966186 56.7028906 35.7799465 57.70581802 38.37890625 58.58984375 C41.55210034 59.9766471 43.43320978 61.02929126 45.703125 63.6796875 C46.99173946 69.2256055 46.26492156 75.07420626 45.703125 80.6796875 C44.94386719 81.08960937 44.18460937 81.49953125 43.40234375 81.921875 C42.40847656 82.46070312 41.41460937 82.99953125 40.390625 83.5546875 C39.40449219 84.08835937 38.41835937 84.62203125 37.40234375 85.171875 C34.60726042 86.68690876 34.60726042 86.68690876 31.703125 88.6796875 C25.23094235 88.17051229 17.20153582 84.48443583 12.703125 79.6796875 C11.21790339 74.90137108 11.21614513 70.63296842 11.703125 65.6796875 C9.76221674 67.62059576 10.30393065 71.15262652 10.140625 73.7421875 C10.05683594 75.03253906 9.97304688 76.32289062 9.88671875 77.65234375 C9.79583984 79.15087891 9.79583984 79.15087891 9.703125 80.6796875 C8.713125 81.0715625 7.723125 81.4634375 6.703125 81.8671875 C3.72627367 83.10603876 1.27191758 84.63659389 -1.359375 86.4921875 C-4.90244884 88.72351263 -4.90244884 88.72351263 -8.109375 88.3671875 C-9.16125 87.8103125 -10.213125 87.2534375 -11.296875 86.6796875 C-12.14507813 86.35097656 -12.99328125 86.02226563 -13.8671875 85.68359375 C-21.49144327 82.34928026 -24.49673304 77.89399519 -27.859375 70.60546875 C-31.26521421 61.77711361 -32.85773419 53.45463624 -32.796875 43.9921875 C-32.79115479 42.94780518 -32.78543457 41.90342285 -32.77954102 40.82739258 C-32.48349027 27.8799071 -29.30156685 14.49854679 -20.296875 4.6796875 C-12.99492469 -0.93495955 -8.68514306 -3.4781734 0 0 Z " fill="#DDF4FD" transform="translate(32.296875,20.3203125)"/>
<path d="M0 0 C1.216875 -0.02900391 2.43375 -0.05800781 3.6875 -0.08789062 C20.6633366 -0.20577838 34.45529929 6.59493931 46.5 18.3125 C45.84 18.6425 45.18 18.9725 44.5 19.3125 C42.81503702 18.34364628 41.14821244 17.34263277 39.5 16.3125 C38.84 16.3125 38.18 16.3125 37.5 16.3125 C37.005 17.7975 37.005 17.7975 36.5 19.3125 C37.304375 19.51875 38.10875 19.725 38.9375 19.9375 C40.7009375 20.618125 40.7009375 20.618125 42.5 21.3125 C43.304375 21.6115625 44.10875 21.910625 44.9375 22.21875 C47.85152138 23.63933542 49.49885039 24.74209558 51.5 27.3125 C52.84240737 32.8670834 52.96330919 38.04542425 50.5 43.3125 C46.78127374 47.97254131 41.38544221 51.27060021 35.5 52.3125 C30.68108497 51.35195479 27.40278809 49.21306154 23.5 46.3125 C20.90963809 44.52970078 20.90963809 44.52970078 18.5 43.3125 C17.51 43.8075 17.51 43.8075 16.5 44.3125 C15.84 43.9825 15.18 43.6525 14.5 43.3125 C14.5 37.7025 14.5 32.0925 14.5 26.3125 C12.025 25.3225 12.025 25.3225 9.5 24.3125 C7.26493265 22.99478203 5.06908141 21.62917961 2.87890625 20.23828125 C-1.29459067 18.6141125 -4.59812641 19.98968916 -8.67578125 21.44921875 C-12.10638167 23.14529393 -14.74663167 24.63608917 -17.5 27.3125 C-18.47223475 31.14174036 -18.57342351 34.36143532 -18.41015625 38.30078125 C-18.45462891 39.79158203 -18.45462891 39.79158203 -18.5 41.3125 C-19.49 41.9725 -20.48 42.6325 -21.5 43.3125 C-21.40976562 42.2503125 -21.31953125 41.188125 -21.2265625 40.09375 C-20.74845905 32.43913376 -20.74845905 32.43913376 -23.84082031 25.75341797 C-28.15605688 22.33687302 -33.61549641 19.11799258 -39.22265625 19.49609375 C-41.42326264 20.28499038 -43.22470233 21.17601656 -45.1875 22.4375 C-46.280625 23.05625 -47.37375 23.675 -48.5 24.3125 C-49.16 23.9825 -49.82 23.6525 -50.5 23.3125 C-36.14340898 7.8347869 -21.00171009 0.16271986 0 0 Z " fill="#E3F8FB" transform="translate(63.5,-0.3125)"/>
<path d="M0 0 C1.02738281 0.37253906 2.05476563 0.74507813 3.11328125 1.12890625 C6.75704955 2.76170596 9.23011643 4.09574024 12 7 C13.51474829 12.5202355 12.68044805 18.39890449 12 24 C11.24074219 24.40992187 10.48148438 24.81984375 9.69921875 25.2421875 C8.70535156 25.78101562 7.71148437 26.31984375 6.6875 26.875 C5.70136719 27.40867187 4.71523437 27.94234375 3.69921875 28.4921875 C0.90413542 30.00722126 0.90413542 30.00722126 -2 32 C-6.48316075 31.69802544 -9.93973313 29.58903715 -13.8125 27.4375 C-14.40998047 27.10814453 -15.00746094 26.77878906 -15.62304688 26.43945312 C-17.08533998 25.63226733 -18.5431399 24.81695083 -20 24 C-21.37071086 8.80372409 -21.37071086 8.80372409 -18.20703125 4.640625 C-15.86111728 3.1159774 -13.59714474 2.03034267 -11 1 C-9.9275 0.34 -8.855 -0.32 -7.75 -1 C-4.20922551 -2.28755436 -3.37608077 -1.51608792 0 0 Z " fill="#92D9FE" transform="translate(66,77)"/>
<path d="M0 0 C0.98742187 0.37253906 1.97484375 0.74507812 2.9921875 1.12890625 C6.35642153 2.8019061 8.54313783 4.12722922 11 7 C12.37807347 12.54766399 11.62513711 18.38639508 11 24 C9.25048432 24.95921722 7.50036756 25.91733817 5.75 26.875 C4.77546875 27.40867187 3.8009375 27.94234375 2.796875 28.4921875 C1.87390625 28.98976563 0.9509375 29.48734375 0 30 C-0.67546875 30.41507813 -1.3509375 30.83015625 -2.046875 31.2578125 C-5.63977346 32.62311392 -8.59825372 31.1330753 -12.11328125 29.96875 C-20.00011533 26.3479324 -20.00011533 26.3479324 -21.78808594 22.14941406 C-23.05652973 17.04446731 -23.14531453 11.86724949 -21 7 C-15.72432914 0.75757373 -7.72768987 -3.67485252 0 0 Z " fill="#7DBBFB" transform="translate(85,48)"/>
<path d="M0 0 C0.77214844 0.46792969 1.54429688 0.93585937 2.33984375 1.41796875 C3.2834375 1.85753906 4.22703125 2.29710937 5.19921875 2.75 C6.63007812 3.48283203 6.63007812 3.48283203 8.08984375 4.23046875 C9.0540625 4.71128906 10.01828125 5.19210938 11.01171875 5.6875 C13.33984375 7.41796875 13.33984375 7.41796875 14.13671875 9.7578125 C14.23726562 11.07458984 14.23726562 11.07458984 14.33984375 12.41796875 C14.47390625 13.3409375 14.60796875 14.26390625 14.74609375 15.21484375 C14.8765298 19.32357948 14.82725257 22.71167885 12.00927734 25.94433594 C8.05795569 29.43825865 3.55182602 32.32753208 -1.66015625 33.41796875 C-6.48363385 32.47811981 -9.75823136 30.31788876 -13.66015625 27.41796875 C-14.58957031 27.02480469 -15.51898438 26.63164063 -16.4765625 26.2265625 C-18.66015625 24.41796875 -18.66015625 24.41796875 -19.05175781 22.59130859 C-19.15384189 20.28410522 -19.09561893 18.03649189 -18.97265625 15.73046875 C-18.95009766 14.93318359 -18.92753906 14.13589844 -18.90429688 13.31445312 C-18.84542569 11.34815541 -18.7557438 9.38282384 -18.66015625 7.41796875 C-16.10784478 6.02034578 -13.54626414 4.65032853 -10.97265625 3.29296875 C-9.89081055 2.69548828 -9.89081055 2.69548828 -8.78710938 2.0859375 C-3.36538173 -0.73633169 -3.36538173 -0.73633169 0 0 Z " fill="#9BDDE6" transform="translate(100.66015625,18.58203125)"/>
<path d="M0 0 C3.61557517 1.67834107 6.06323948 3.03091852 8.7890625 5.96875 C10.29052402 11.49710425 9.47020276 17.36195658 8.7890625 22.96875 C6.59175866 24.34432241 4.38416312 25.69338252 2.1640625 27.03125 C1.54660156 27.42119141 0.92914063 27.81113281 0.29296875 28.21289062 C-2.81849978 30.06339559 -4.58510195 30.98870649 -8.2734375 30.87109375 C-14.04299513 29.09879613 -19.01681889 27.48907783 -23.2109375 22.96875 C-24.71239902 17.44039575 -23.89207776 11.57554342 -23.2109375 5.96875 C-21.01363366 4.59317759 -18.80603812 3.24411748 -16.5859375 1.90625 C-15.96847656 1.51630859 -15.35101563 1.12636719 -14.71484375 0.72460938 C-9.16271956 -2.57744343 -6.12021982 -1.96561804 0 0 Z " fill="#68CDD5" transform="translate(69.2109375,20.03125)"/>
<path d="M0 0 C3.97356775 2.02915076 6.55344602 3.49739857 9.66796875 6.71484375 C11.25471141 11.91220889 10.41877883 17.4270873 9.66796875 22.71484375 C-3.96797563 32.00285053 -3.96797563 32.00285053 -9.41015625 31.33984375 C-11.97588958 30.01762535 -14.0789138 28.51049713 -16.33203125 26.71484375 C-17.50765625 26.24046875 -18.68328125 25.76609375 -19.89453125 25.27734375 C-23.59587376 21.38618881 -23.34699645 17.33617002 -23.71484375 12.125 C-23.25212347 8.00301219 -22.28051837 6.58430944 -19.33203125 3.71484375 C-16.7109375 1.87890625 -16.7109375 1.87890625 -13.89453125 0.33984375 C-12.96769531 -0.18351562 -12.04085938 -0.706875 -11.0859375 -1.24609375 C-6.70684355 -2.89834764 -4.2559452 -1.64150759 0 0 Z " fill="#68CDD5" transform="translate(32.33203125,20.28515625)"/>
<path d="M0 0 C0.78375 0.46277344 1.5675 0.92554688 2.375 1.40234375 C3.33019531 1.89992187 4.28539063 2.3975 5.26953125 2.91015625 C7.97135417 4.40755208 10.67317708 5.90494792 13.375 7.40234375 C13.375 13.34234375 13.375 19.28234375 13.375 25.40234375 C10.0646875 27.41328125 10.0646875 27.41328125 6.6875 29.46484375 C6.00212158 29.891604 5.31674316 30.31836426 4.6105957 30.75805664 C1.92388213 32.33987337 -0.03288528 33.4249091 -3.1875 33.3046875 C-3.991875 33.00691406 -4.79625 32.70914063 -5.625 32.40234375 C-6.65238281 32.06203125 -7.67976563 31.72171875 -8.73828125 31.37109375 C-16.62511533 27.75027615 -16.62511533 27.75027615 -18.41308594 23.55175781 C-19.68079145 18.44978233 -19.77869266 13.26425126 -17.625 8.40234375 C-13.70789322 3.81914342 -6.13334101 -1.39643032 0 0 Z " fill="#60ABFB" transform="translate(45.625,46.59765625)"/>
<path d="M0 0 C8.00521083 3.67516395 8.00521083 3.67516395 9.61035156 7.8515625 C10.66074255 12.90089214 10.68435083 18.09181727 8.88671875 22.96875 C5.69386083 26.53249545 2.30417558 28.24588222 -2.11328125 29.96875 C-3.34111328 30.64550781 -3.34111328 30.64550781 -4.59375 31.3359375 C-7.11328125 31.96875 -7.11328125 31.96875 -10.12109375 30.66796875 C-11.14976563 30.00410156 -12.1784375 29.34023437 -13.23828125 28.65625 C-17.4894017 25.92242033 -17.4894017 25.92242033 -22.11328125 23.96875 C-23.96837861 18.40345792 -23.50275838 12.61755891 -22.11328125 6.96875 C-19.51365335 4.02678427 -16.64572612 2.58980347 -13.11328125 0.96875 C-12.20578125 0.329375 -11.29828125 -0.31 -10.36328125 -0.96875 C-6.67470284 -2.71057869 -3.74924169 -1.24190691 0 0 Z " fill="#60C8FE" transform="translate(32.11328125,77.03125)"/>
<path d="M0 0 C0.66 0.33 1.32 0.66 2 1 C2 1.66 2 2.32 2 3 C2.969375 3.309375 3.93875 3.61875 4.9375 3.9375 C8 5 8 5 9 6 C9.08685603 7.56172745 9.10702219 9.12729344 9.09765625 10.69140625 C9.09443359 11.63564453 9.09121094 12.57988281 9.08789062 13.55273438 C9.07951172 14.54595703 9.07113281 15.53917969 9.0625 16.5625 C9.05798828 17.55958984 9.05347656 18.55667969 9.04882812 19.58398438 C9.03700007 22.05604849 9.02051849 24.52799518 9 27 C7.68 27.33 6.36 27.66 5 28 C5 28.66 5 29.32 5 30 C0.40783616 32.73343086 -1.837282 33.20843032 -7 32 C-11.80924314 30.45542556 -15.47343611 28.66325241 -19 25 C-21.03986549 20.18312136 -21.09492239 15.03150199 -19.88623047 9.98632812 C-17.64135882 4.9548472 -12.4209316 2.5678287 -7.671875 0.2734375 C-4.02006717 -0.99304053 -3.39394222 -1.14967388 0 0 Z " fill="#CCE6FD" transform="translate(119,48)"/>
<path d="M0 0 C2.08961177 1.11738087 4.15056465 2.28925158 6.1875 3.5 C7.25355469 4.1290625 8.31960937 4.758125 9.41796875 5.40625 C12 7 12 7 13 8 C13.07226502 9.85287502 13.0838122 11.70833878 13.0625 13.5625 C13.05347656 14.57441406 13.04445312 15.58632812 13.03515625 16.62890625 C13.02355469 17.41136719 13.01195312 18.19382812 13 19 C12.34 18.01 11.68 17.02 11 16 C10.54109375 16.55429688 10.0821875 17.10859375 9.609375 17.6796875 C8.99578125 18.40414062 8.3821875 19.12859375 7.75 19.875 C7.14671875 20.59429687 6.5434375 21.31359375 5.921875 22.0546875 C4 24 4 24 2.078125 24.8828125 C-0.89479091 26.31427975 -0.89479091 26.31427975 -5 32 C-9.62 29.69 -14.24 27.38 -19 25 C-20.79297467 13.43199304 -20.79297467 13.43199304 -19 8 C-14.85131466 2.97639246 -6.45068977 -2.23902919 0 0 Z " fill="#AAE2FE" transform="translate(101,77)"/>
<path d="M0 0 C7.6280115 0.94785942 15.79552011 5.36753087 21 11 C23.3376979 15.53060332 23.39627622 20.32098999 21.94189453 25.15576172 C19.25528854 30.41616132 13.20384131 33.46661831 7.89355469 35.57128906 C4.81042408 36.26932637 2.74835957 35.39456821 0 34 C-2.57259149 31.42740851 -2.25708891 30.40829224 -2.265625 26.8359375 C-2.26820312 25.79566406 -2.27078125 24.75539063 -2.2734375 23.68359375 C-2.26570312 22.59175781 -2.25796875 21.49992187 -2.25 20.375 C-2.25773438 19.30636719 -2.26546875 18.23773438 -2.2734375 17.13671875 C-2.25851677 11.07144352 -1.77138307 5.80620005 0 0 Z " fill="#40D2F7" transform="translate(2,44)"/>
<path d="M0 0 C2.56004572 1.2617167 4.88977244 2.52363704 7.3125 4 C9.519375 5.32 11.72625 6.64 14 8 C14 13.28 14 18.56 14 24 C1.86340776 24.73112001 -7.2751437 21.42878302 -17.70703125 15.40625 C-19 14 -19 14 -19.6171875 11.64453125 C-18.82205857 8.23755474 -17.1418872 7.20149425 -14.26757812 5.36132812 C-13.62240234 4.97396484 -12.97722656 4.58660156 -12.3125 4.1875 C-11.68666016 3.78080078 -11.06082031 3.37410156 -10.41601562 2.95507812 C-6.83587223 0.72451758 -4.20967792 -0.86166845 0 0 Z " fill="#9AF6FE" transform="translate(46,104)"/>
<path d="M0 0 C0 4.62 0 9.24 0 14 C-2.19730384 15.37557241 -4.40489938 16.72463252 -6.625 18.0625 C-7.24246094 18.45244141 -7.85992187 18.84238281 -8.49609375 19.24414062 C-11.5907169 21.08462703 -13.39682863 22.01000157 -17.0625 21.94921875 C-20.42219155 20.86357374 -23.30364162 19.49422822 -26.375 17.75 C-27.43460938 17.16734375 -28.49421875 16.5846875 -29.5859375 15.984375 C-32 14 -32 14 -32.3515625 11.265625 C-32.23554687 10.51796875 -32.11953125 9.7703125 -32 9 C-29.81623234 7.86722732 -27.62842872 6.74377211 -25.4375 5.625 C-24.82841797 5.30789062 -24.21933594 4.99078125 -23.59179688 4.6640625 C-15.62777775 0.61884644 -8.8668833 -0.21893539 0 0 Z " fill="#7BF2A3" transform="translate(61,0)"/>
<path d="M0 0 C10.82835296 -0.62874308 20.92202888 0.57977704 30 7 C30.9375 10.25 30.9375 10.25 30 14 C25.884631 17.92901267 20.85629289 21.82775609 15 22 C9.60510406 20.30791451 3.84231782 17.18340778 0 13 C-1.27901954 8.42111005 -0.96434017 4.62168954 0 0 Z " fill="#A6F5C6" transform="translate(65,0)"/>
<path d="M0 0 C2.79904146 1.7050499 5.53070793 3.47618431 8.21875 5.3515625 C5.53652563 9.02720331 3.19344569 11.17494343 -0.78125 13.3515625 C-5.070336 16.06304939 -5.070336 16.06304939 -8.71875 19.5390625 C-11.56246366 22.03808359 -14.08417739 22.0671723 -17.78125 22.3515625 C-18.73017784 17.41010866 -19.06625678 13.25000834 -17.78125 8.3515625 C-15.68820828 5.97724535 -13.31889289 4.43256389 -10.59375 2.8515625 C-9.92142334 2.4604126 -9.24909668 2.0692627 -8.55639648 1.66625977 C-5.43960984 0.0602515 -3.47047425 -0.80912742 0 0 Z " fill="#A2F5FE" transform="translate(81.78125,104.6484375)"/>
<path d="M0 0 C1.32 0.66 2.64 1.32 4 2 C-7.96852262 17.20325846 -7.96852262 17.20325846 -16.6015625 18.5703125 C-19.78529571 18.56337626 -22.84404125 18.40641122 -26 18 C-23.83688841 16.88636416 -21.82024878 15.94158085 -19.5 15.1875 C-16.38580619 13.70825794 -15.12284657 11.67067794 -13 9 C-12.39800781 8.86851563 -11.79601562 8.73703125 -11.17578125 8.6015625 C-8.14994977 7.76497714 -6.53779116 6.05707122 -4.25 3.9375 C-3.45078125 3.20402344 -2.6515625 2.47054687 -1.828125 1.71484375 C-1.22484375 1.14894531 -0.6215625 0.58304687 0 0 Z " fill="#C9FAFE" transform="translate(90,110)"/>
<path d="M0 0 C0.33 0 0.66 0 1 0 C1.33 3.63 1.66 7.26 2 11 C1.34 10.34 0.68 9.68 0 9 C-0.66 9.66 -1.32 10.32 -2 11 C-1.67 11.66 -1.34 12.32 -1 13 C-2.92989218 14.19982444 -4.86919228 15.38452818 -6.8125 16.5625 C-8.43091797 17.55443359 -8.43091797 17.55443359 -10.08203125 18.56640625 C-13 20 -13 20 -16 19 C-15.43790555 15.56086948 -14.47112228 14.19798944 -11.75 12.0625 C-7.27854207 8.42485902 -3.43558948 4.6380458 0 0 Z " fill="#CEF4FE" transform="translate(112,91)"/>
<path d="M0 0 C0.66 0.66 1.32 1.32 2 2 C-0.36292656 4.52588702 -1.66462511 5.88820837 -5 7 C-6.70779973 8.62449243 -8.37550757 10.29220027 -10 12 C-10.66 12.66 -11.32 13.32 -12 14 C-13.32 14 -14.64 14 -16 14 C-15.3125 12.125 -15.3125 12.125 -14 10 C-13.2471875 9.71125 -12.494375 9.4225 -11.71875 9.125 C-8.58525648 7.82838199 -6.66891372 6.17123359 -4.1875 3.875 C-3.39730469 3.15054688 -2.60710937 2.42609375 -1.79296875 1.6796875 C-1.20128906 1.12539062 -0.60960938 0.57109375 0 0 Z " fill="#BAF8FE" transform="translate(90,110)"/>
<path d="M0 0 C0.99 0.33 1.98 0.66 3 1 C3.66 0.67 4.32 0.34 5 0 C5 4.29 5 8.58 5 13 C1.89083741 8.85444988 0.68437364 5.81249612 -1 1 C-0.67 0.67 -0.34 0.34 0 0 Z " fill="#ECFAFE" transform="translate(4,85)"/>
</svg>
